HIERARCHY
ROOT Hips
{
	OFFSET 0.000000 103.266502 0.000000
	CHANNELS 6 Xposition Yposition Zposition Xrotation Yrotation Zrotation 
	JOINT Spine
	{
		OFFSET -0.002400 12.777504 0.315300
		CHANNELS 3 Xrotation Yrotation Zrotation
		JOINT Spine1
		{
			OFFSET -0.002067 5.816869 0.032633
			CHANNELS 3 Xrotation Yrotation Zrotation
			JOINT Spine1_split
			{
				OFFSET -0.002067 5.816869 0.032633
				CHANNELS 3 Xrotation Yrotation Zrotation
				JOINT Spine2
				{
					OFFSET -0.002067 5.816869 0.032633
					CHANNELS 3 Xrotation Yrotation Zrotation
					JOINT Neck
					{
						OFFSET -0.003700 21.199493 -0.826900
						CHANNELS 3 Xrotation Yrotation Zrotation
						JOINT Head
						{
							OFFSET 0.000000 20.442200 4.834800
							CHANNELS 3 Xrotation Yrotation Zrotation
							JOINT HeadTop_End
							{
								OFFSET 0.000000 34.668396 4.968400
								CHANNELS 3 Xrotation Yrotation Zrotation
								End Site
								{
									OFFSET 0.000000 0.000000 0.000000
								}
							}
						}
					}
					JOINT LeftShoulder
					{
						OFFSET 3.288150 8.794197 -1.372250
						CHANNELS 3 Xrotation Yrotation Zrotation
						JOINT LeftShoulder_split
						{
							OFFSET 3.288150 8.794197 -1.372250
							CHANNELS 3 Xrotation Yrotation Zrotation
							JOINT LeftArm
							{
								OFFSET 11.953299 -2.279007 -0.146200
								CHANNELS 3 Xrotation Yrotation Zrotation
								JOINT LeftForeArm
								{
									OFFSET 18.448900 0.000000 0.000000
									CHANNELS 3 Xrotation Yrotation Zrotation
									JOINT LeftHand
									{
										OFFSET 29.527798 0.000000 0.000000
										CHANNELS 3 Xrotation Yrotation Zrotation
										JOINT LeftHandThumb1
										{
											OFFSET 10.739754 -2.369614 9.225399
											CHANNELS 3 Xrotation Yrotation Zrotation
											JOINT LeftHandThumb2
											{
												OFFSET 4.926170 -2.844131 2.844125
												CHANNELS 3 Xrotation Yrotation Zrotation
												JOINT LeftHandThumb3
												{
													OFFSET 4.614891 -2.664413 2.664409
													CHANNELS 3 Xrotation Yrotation Zrotation
													JOINT LeftHandThumb4
													{
														OFFSET 4.432465 -2.559082 2.559083
														CHANNELS 3 Xrotation Yrotation Zrotation
														End Site
														{
															OFFSET 0.000000 0.000000 0.000000
														}
													}
												}
											}
										}
										JOINT LeftHandIndex1
										{
											OFFSET 26.467674 0.187653 6.405298
											CHANNELS 3 Xrotation Yrotation Zrotation
											JOINT LeftHandIndex2
											{
												OFFSET 8.792900 0.000000 0.000000
												CHANNELS 3 Xrotation Yrotation Zrotation
												JOINT LeftHandIndex3
												{
													OFFSET 10.075203 0.000000 0.000000
													CHANNELS 3 Xrotation Yrotation Zrotation
													End Site
													{
														OFFSET 0.000000 0.000000 0.000000
													}
												}
											}
										}
										JOINT LeftHandMiddle1
										{
											OFFSET 25.764404 0.000000 0.000000
											CHANNELS 3 Xrotation Yrotation Zrotation
											JOINT LeftHandMiddle2
											{
												OFFSET 9.393974 0.000000 0.000000
												CHANNELS 3 Xrotation Yrotation Zrotation
												JOINT LeftHandMiddle3
												{
													OFFSET 10.771950 0.000000 0.000000
													CHANNELS 3 Xrotation Yrotation Zrotation
													End Site
													{
														OFFSET 0.000000 0.000000 0.000000
													}
												}
											}
										}
										JOINT LeftHandRing1
										{
											OFFSET 24.660927 0.144547 -6.225808
											CHANNELS 3 Xrotation Yrotation Zrotation
											JOINT LeftHandRing2
											{
												OFFSET 9.393799 0.000000 0.000000
												CHANNELS 3 Xrotation Yrotation Zrotation
												JOINT LeftHandRing3
												{
													OFFSET 9.928497 0.000000 0.000000
													CHANNELS 3 Xrotation Yrotation Zrotation
													End Site
													{
														OFFSET 0.000000 0.000000 0.000000
													}
												}
											}
										}
										JOINT LeftHandPinky1
										{
											OFFSET 23.655350 0.125290 -12.815412
											CHANNELS 3 Xrotation Yrotation Zrotation
											JOINT LeftHandPinky2
											{
												OFFSET 8.425102 0.000000 0.000000
												CHANNELS 3 Xrotation Yrotation Zrotation
												JOINT LeftHandPinky3
												{
													OFFSET 8.147003 0.000000 0.000000
													CHANNELS 3 Xrotation Yrotation Zrotation
													End Site
													{
														OFFSET 0.000000 0.000000 0.000000
													}
												}
											}
										}
									}
								}
							}
						}
					}
					JOINT RightShoulder
					{
						OFFSET -3.249400 8.794197 -1.372250
						CHANNELS 3 Xrotation Yrotation Zrotation
						JOINT RightShoulder_split
						{
							OFFSET -3.249400 8.794197 -1.372250
							CHANNELS 3 Xrotation Yrotation Zrotation
							JOINT RightArm
							{
								OFFSET -11.953299 -2.279007 -0.146200
								CHANNELS 3 Xrotation Yrotation Zrotation
								JOINT RightForeArm
								{
									OFFSET -18.448900 0.000000 0.000000
									CHANNELS 3 Xrotation Yrotation Zrotation
									JOINT RightHand
									{
										OFFSET -29.527802 0.000000 0.000000
										CHANNELS 3 Xrotation Yrotation Zrotation
										JOINT RightHandThumb1
										{
											OFFSET -10.739754 -2.369614 9.225399
											CHANNELS 3 Xrotation Yrotation Zrotation
											JOINT RightHandThumb2
											{
												OFFSET -4.926170 -2.844131 2.844125
												CHANNELS 3 Xrotation Yrotation Zrotation
												JOINT RightHandThumb3
												{
													OFFSET -4.614891 -2.664413 2.664409
													CHANNELS 3 Xrotation Yrotation Zrotation
													JOINT RightHandThumb4
													{
														OFFSET -4.432465 -2.559082 2.559083
														CHANNELS 3 Xrotation Yrotation Zrotation
														End Site
														{
															OFFSET 0.000000 0.000000 0.000000
														}
													}
												}
											}
										}
										JOINT RightHandIndex1
										{
											OFFSET -26.467674 0.187653 6.405298
											CHANNELS 3 Xrotation Yrotation Zrotation
											JOINT RightHandIndex2
											{
												OFFSET -8.792900 0.000000 0.000000
												CHANNELS 3 Xrotation Yrotation Zrotation
												JOINT RightHandIndex3
												{
													OFFSET -10.075203 0.000000 0.000000
													CHANNELS 3 Xrotation Yrotation Zrotation
													End Site
													{
														OFFSET 0.000000 0.000000 0.000000
													}
												}
											}
										}
										JOINT RightHandMiddle1
										{
											OFFSET -25.764404 0.000000 0.000000
											CHANNELS 3 Xrotation Yrotation Zrotation
											JOINT RightHandMiddle2
											{
												OFFSET -9.393974 0.000000 0.000000
												CHANNELS 3 Xrotation Yrotation Zrotation
												JOINT RightHandMiddle3
												{
													OFFSET -10.771950 0.000000 0.000000
													CHANNELS 3 Xrotation Yrotation Zrotation
													End Site
													{
														OFFSET 0.000000 0.000000 0.000000
													}
												}
											}
										}
										JOINT RightHandRing1
										{
											OFFSET -24.660927 0.144547 -6.225808
											CHANNELS 3 Xrotation Yrotation Zrotation
											JOINT RightHandRing2
											{
												OFFSET -9.393799 0.000000 0.000000
												CHANNELS 3 Xrotation Yrotation Zrotation
												JOINT RightHandRing3
												{
													OFFSET -9.928497 0.000000 0.000000
													CHANNELS 3 Xrotation Yrotation Zrotation
													End Site
													{
														OFFSET 0.000000 0.000000 0.000000
													}
												}
											}
										}
										JOINT RightHandPinky1
										{
											OFFSET -23.655350 0.125290 -12.815412
											CHANNELS 3 Xrotation Yrotation Zrotation
											JOINT RightHandPinky2
											{
												OFFSET -8.425102 0.000000 0.000000
												CHANNELS 3 Xrotation Yrotation Zrotation
												JOINT RightHandPinky3
												{
													OFFSET -8.147003 0.000000 0.000000
													CHANNELS 3 Xrotation Yrotation Zrotation
													End Site
													{
														OFFSET 0.000000 0.000000 0.000000
													}
												}
											}
										}
									}
								}
							}
						}
					}
				}
			}
		}
	}
	JOINT LeftUpLeg
	{
		OFFSET 11.394100 -6.187798 -0.413800
		CHANNELS 3 Xrotation Yrotation Zrotation
		JOINT LeftLeg
		{
			OFFSET 0.430247 -32.302673 3.732800
			CHANNELS 3 Xrotation Yrotation Zrotation
			JOINT LeftFoot
			{
				OFFSET -0.430247 -48.264931 -6.423300
				CHANNELS 3 Xrotation Yrotation Zrotation
				JOINT LeftToeBase
				{
					OFFSET 4.230900 -16.068199 23.438400
					CHANNELS 3 Xrotation Yrotation Zrotation
					JOINT LeftToe_End
					{
						OFFSET 4.510700 0.695400 19.974600
						CHANNELS 3 Xrotation Yrotation Zrotation
						End Site
						{
							OFFSET 0.000000 0.000000 0.000000
						}
					}
				}
			}
		}
	}
	JOINT RightUpLeg
	{
		OFFSET -11.333700 -6.187798 -0.413800
		CHANNELS 3 Xrotation Yrotation Zrotation
		JOINT RightLeg
		{
			OFFSET -0.430392 -32.302628 3.733000
			CHANNELS 3 Xrotation Yrotation Zrotation
			JOINT RightFoot
			{
				OFFSET 0.430392 -48.264973 -6.423500
				CHANNELS 3 Xrotation Yrotation Zrotation
				JOINT RightToeBase
				{
					OFFSET -4.230900 -16.068199 23.438400
					CHANNELS 3 Xrotation Yrotation Zrotation
					JOINT RightToe_End
					{
						OFFSET -4.510700 0.695400 19.974600
						CHANNELS 3 Xrotation Yrotation Zrotation
						End Site
						{
							OFFSET 0.000000 0.000000 0.000000
						}
					}
				}
			}
		}
	}
}
MOTION
Frames: 6
Frame Time: 0.016667
1.053060 91.451614 -0.616738 9.552027 -61.637034 10.137405 15.063815 -0.301339 -4.275751 5.872402 0.563939 -2.798214 0.000000 0.000000 0.000000 5.868713 0.648185 -2.860163 -3.632885 1.437140 3.747502 -20.005957 54.836775 2.407368 0.000000 0.000000 0.000000 1.828098 -3.192689 -12.271569 0.000000 0.000000 0.000000 -39.387409 26.350501 -34.911098 0.429354 -46.808444 0.416189 -10.315064 -0.130725 0.363020 40.109931 -15.297139 -0.360512 5.639807 28.097925 11.338845 1.088577 40.896297 22.734020 -0.000002 -0.000005 0.000002 6.882261 2.840063 -61.140404 8.247993 7.640045 -89.897891 -0.000001 -0.000002 0.000001 -2.345508 4.688863 -62.655210 8.754146 9.897088 -87.051301 0.000001 0.000000 0.000001 -9.042446 10.045668 -60.766185 8.524079 9.508827 -66.893029 0.000000 -0.000001 0.000000 -17.946899 14.754993 -51.485850 8.868437 8.667053 -84.811982 -0.000002 0.000002 -0.000001 0.632607 7.257351 8.700390 0.000000 0.000000 0.000000 7.936015 -9.680166 53.429910 -22.867419 36.194692 17.955442 -27.369931 10.432879 -17.813550 -2.346176 -6.100548 10.731435 2.364043 -23.806303 -8.771066 -5.012455 13.984840 5.861513 -0.000000 0.000000 -0.000001 -0.054753 0.532100 0.738733 0.019775 -0.087295 5.078510 -0.000000 -0.000001 -0.000000 0.348265 -5.918510 2.583823 1.432601 -4.204223 24.052095 -0.000000 0.000000 0.000000 1.205820 -11.756056 4.154789 1.794843 -3.771871 26.865402 0.000000 0.000001 0.000001 2.126187 -19.166877 11.319981 3.354774 -2.122233 18.828535 0.000000 -0.000000 -0.000000 -39.400520 10.449807 24.281060 35.193151 -6.324780 1.197206 -1.670225 -2.664530 -16.850014 -1.836420 -0.000600 -0.000033 -0.000000 -0.000001 -0.000000 -33.417244 -17.905817 -33.264988 34.415363 3.036382 -4.033053 -7.712888 1.356607 23.067758 -0.001697 -0.000458 0.000001 -0.000000 -0.000000 -0.000000 
1.278385 91.060593 -1.600086 9.961958 -55.397390 8.157646 18.426768 -0.448074 -3.574812 7.295528 -0.352589 -0.796543 0.000000 0.000000 0.000000 7.297470 -0.185250 -0.836843 -9.419009 1.041043 2.964140 -33.847136 49.164439 3.507833 -0.000000 0.000000 0.000000 3.590630 -8.212480 -8.338654 0.000000 0.000000 0.000000 -17.336422 15.897253 -30.473750 -15.109895 -56.231978 -14.869708 -11.534131 1.944481 -6.382539 40.109934 -15.297139 -0.360505 5.639807 28.097921 11.338845 1.088575 40.896297 22.734020 -0.000002 -0.000000 -0.000000 6.882264 2.840059 -61.140404 8.247994 7.640047 -89.897891 0.000001 -0.000000 -0.000000 -2.345504 4.688861 -62.655210 8.754146 9.897088 -87.051301 -0.000002 0.000000 0.000000 -9.042449 10.045665 -60.766178 8.524083 9.508821 -66.893029 -0.000000 -0.000001 -0.000000 -17.946899 14.754988 -51.485853 8.868437 8.667050 -84.811982 -0.000001 0.000003 0.000001 2.195458 10.570685 6.739743 0.000000 0.000000 0.000000 12.334692 -2.089148 49.300613 -23.008776 37.026811 18.727884 -25.845424 16.676414 -17.494136 0.214167 -4.319364 5.919521 1.314334 -24.654492 -5.837901 -5.255346 11.018659 5.600846 -0.000000 -0.000001 -0.000001 0.333201 0.054695 1.470564 -0.415181 -0.423075 6.838789 0.000001 0.000003 -0.000001 -0.032236 -5.717572 3.568904 1.219203 -4.302297 24.290260 -0.000004 -0.000001 -0.000000 0.521313 -11.018113 4.548196 2.135400 -3.822150 27.589374 0.000001 0.000000 0.000000 0.964441 -17.509390 12.312439 4.696306 -2.397695 20.330898 -0.000001 -0.000000 -0.000000 -43.787376 6.715063 24.085860 35.635884 -7.554958 1.384922 0.128490 -5.369624 -16.524301 -1.836427 -0.000608 -0.000061 0.000000 0.000000 -0.000000 -33.437099 -17.714109 -32.575938 38.529920 -0.619104 -2.207570 -8.518679 0.821009 22.239173 -0.835251 -0.014808 0.985665 -0.000000 0.000000 -0.000000 
0.698400 90.619766 -2.101714 8.526655 -43.414404 6.000249 19.042817 -0.349082 -1.749115 8.434703 -1.248273 0.996156 0.000000 0.000000 0.000000 8.432943 -1.053494 0.978027 -4.999487 -0.762673 5.645551 -37.843264 41.961011 5.245533 0.000000 -0.000001 -0.000000 3.416897 -8.568169 -4.408945 0.000000 0.000000 0.000000 -14.803023 11.945518 -33.781747 -16.458850 -59.708844 -14.596276 -9.671802 4.965335 -21.142601 40.109938 -15.297144 -0.360511 5.639805 28.097926 11.338845 1.088574 40.896297 22.734020 -0.000001 0.000000 0.000003 6.882263 2.840061 -61.140404 8.247995 7.640048 -89.897891 0.000002 0.000000 -0.000001 -2.345509 4.688860 -62.655217 8.754142 9.897088 -87.051301 -0.000001 -0.000000 -0.000001 -9.042446 10.045666 -60.766185 8.524079 9.508830 -66.893035 -0.000003 0.000001 0.000000 -17.946894 14.754991 -51.485857 8.868433 8.667054 -84.811982 0.000001 0.000001 -0.000002 2.138315 11.266876 6.137824 0.000000 0.000000 0.000000 17.411424 3.777406 45.935956 -16.048084 34.606779 15.226652 -24.851894 19.175862 -10.594053 3.146374 -2.974242 1.047984 0.338223 -25.670424 -2.901113 -5.541133 8.094013 5.279788 0.000002 -0.000002 -0.000002 0.732167 -0.412277 2.206442 -0.830870 -0.784090 8.596214 0.000002 0.000001 0.000000 -0.419552 -5.531669 4.555024 1.000253 -4.405250 24.527530 0.000000 -0.000000 -0.000000 -0.173226 -10.295276 4.954419 2.478520 -3.867634 28.313813 -0.000003 -0.000001 0.000001 -0.259756 -15.908918 13.341556 6.053402 -2.603406 21.859114 0.000001 -0.000001 0.000001 -47.635734 3.659085 19.636893 34.540209 -12.905656 0.966095 3.022220 -7.639771 -14.931188 -1.836407 -0.000696 -0.000197 -0.000000 0.000002 0.000000 -29.217913 -19.610247 -34.400449 40.721701 -6.859379 0.321669 -9.421863 -0.238465 25.793470 -3.834810 -0.000479 -0.000097 -0.000000 0.000000 -0.000000 
-0.622489 90.525948 -2.067054 5.173653 -29.861526 5.771121 17.947459 0.330004 -1.809462 7.663515 -0.055109 1.868094 0.000000 0.000000 0.000000 7.656345 0.145387 1.807651 11.921186 -3.328159 12.513460 -29.858216 34.396556 5.825771 0.000001 0.000000 0.000000 1.265622 -7.131529 -5.657123 0.000000 0.000000 0.000000 -23.592607 7.588125 -38.951319 11.776970 -59.937123 11.769784 -8.770870 10.933223 -13.361129 40.109938 -15.297143 -0.360509 5.639806 28.097925 11.338850 1.088568 40.896301 22.734022 -0.000003 0.000001 -0.000003 6.882260 2.840058 -61.140404 8.247996 7.640049 -89.897891 -0.000000 -0.000001 -0.000001 -2.345511 4.688859 -62.655210 8.754144 9.897092 -87.051294 -0.000001 -0.000001 0.000002 -9.042449 10.045666 -60.766178 8.524080 9.508829 -66.893029 0.000000 0.000002 -0.000001 -17.946903 14.754990 -51.485853 8.868435 8.667051 -84.811982 0.000001 0.000001 -0.000000 0.254896 10.476042 11.937817 0.000000 0.000000 0.000000 21.048075 3.074639 42.497724 -10.393981 28.226102 14.523736 -24.135626 14.464039 8.084080 6.401487 -2.095822 -3.851028 -0.551832 -26.850023 0.038750 -5.855351 5.180053 4.884400 0.000000 -0.000002 -0.000002 1.142051 -0.868714 2.949709 -1.226183 -1.169347 10.346302 0.000001 -0.000000 0.000000 -0.813166 -5.361015 5.543585 0.782490 -4.510069 24.763254 0.000002 -0.000002 0.000004 -0.877467 -9.587931 5.372618 2.822585 -3.905260 29.040072 -0.000001 -0.000002 0.000002 -1.545736 -14.365763 14.409153 7.422746 -2.738229 23.406281 -0.000002 -0.000001 -0.000001 -47.028410 5.031324 12.576799 30.179252 -18.493408 -0.013124 6.838288 -12.141629 -12.948901 -1.836404 -0.000867 -0.000401 0.000000 0.000000 0.000000 -22.934471 -21.215959 -36.549036 44.357656 -13.232445 1.612214 -12.345224 -1.804670 26.794398 -4.579270 -0.214596 2.875001 0.000000 -0.000000 0.000000 
-2.239622 91.075607 -1.461913 -1.097653 -17.882672 4.569776 16.774772 1.868880 -1.879146 5.284547 2.633932 2.560246 0.000000 0.000000 0.000000 5.269073 2.814641 2.432382 37.491383 -0.604653 24.738085 -18.056875 27.309673 9.709669 0.000003 -0.000000 0.000001 0.907825 -6.380198 -5.024943 0.000000 0.000000 0.000000 -28.312101 3.762125 -48.592930 23.186783 -54.716509 21.547956 -5.821154 5.298334 15.915297 40.109934 -15.297143 -0.360510 5.639808 28.097925 11.338847 1.088571 40.896290 22.734022 0.000001 -0.000001 -0.000000 6.882261 2.840059 -61.140404 8.247994 7.640048 -89.897891 0.000002 0.000003 -0.000003 -2.345511 4.688863 -62.655217 8.754146 9.897089 -87.051307 0.000001 0.000005 -0.000001 -9.042448 10.045666 -60.766185 8.524079 9.508825 -66.893029 0.000001 -0.000001 -0.000002 -17.946897 14.754991 -51.485857 8.868436 8.667053 -84.811989 -0.000002 0.000003 0.000001 -0.419580 12.460901 21.415918 0.000000 0.000000 0.000000 25.186299 -1.964548 37.765199 1.735762 22.440320 11.670350 -19.014506 6.084779 14.201896 9.931782 -1.720445 -8.735639 -1.344079 -28.183551 2.984580 -6.208886 2.290126 4.415850 -0.000000 0.000000 -0.000000 1.562564 -1.314566 3.699314 -1.598032 -1.577366 12.093941 -0.000001 -0.000002 0.000002 -1.212822 -5.206012 6.532403 0.565714 -4.616816 25.000149 0.000002 -0.000003 -0.000002 -1.591820 -8.896307 5.803047 3.167407 -3.934989 29.767105 -0.000000 0.000000 0.000002 -2.893519 -12.882798 15.515118 8.801524 -2.801055 24.970536 0.000003 0.000002 0.000003 -40.734353 9.105481 7.638020 24.596584 -25.598011 -1.292535 10.667890 -17.479518 -10.825017 -1.837226 -0.001060 -0.000665 -0.000000 -0.000002 -0.000000 -12.132700 -21.220525 -32.404337 48.317878 -21.195735 0.223359 -13.258835 -2.830352 25.296608 -13.687447 -2.216838 9.761395 -0.000000 -0.000001 -0.000000 
-4.202611 92.380356 -0.188963 -6.959760 -5.672036 5.655335 15.347333 3.379640 -1.187246 3.809922 5.021478 3.621709 0.000000 0.000000 0.000000 3.802172 5.167653 3.470756 51.333096 7.143545 31.746248 -12.885872 23.789496 13.307746 -0.000002 0.000002 0.000001 0.965216 -3.630445 -3.342202 0.000000 0.000000 0.000000 -30.972401 4.074800 -56.745994 18.176283 -53.137236 16.404586 -0.285462 1.876645 28.333863 40.109938 -15.297144 -0.360512 5.639809 28.097925 11.338846 1.088571 40.896297 22.734015 -0.000000 0.000001 0.000004 6.882268 2.840057 -61.140404 8.247996 7.640044 -89.897891 -0.000003 -0.000000 -0.000001 -2.345503 4.688861 -62.655217 8.754142 9.897086 -87.051301 0.000002 0.000000 0.000001 -9.042440 10.045665 -60.766185 8.524083 9.508828 -66.893029 0.000002 -0.000001 -0.000000 -17.946887 14.754991 -51.485853 8.868436 8.667046 -84.811982 0.000002 -0.000003 -0.000001 -0.729080 14.047268 27.980867 0.000000 0.000000 0.000000 21.782433 -8.006845 32.815391 37.648566 18.368254 -3.768650 -16.698660 6.522128 35.519552 13.683514 -1.869576 -13.553671 -2.024951 -29.666281 5.939186 -6.608843 -0.567311 3.873577 0.000001 0.000001 0.000000 1.993649 -1.749158 4.456157 -1.945401 -2.006881 13.836274 0.000001 0.000000 -0.000001 -1.618161 -5.066299 7.522530 0.349766 -4.725334 25.235211 -0.000001 -0.000002 0.000000 -2.315852 -8.220635 6.245820 3.512792 -3.956994 30.494729 -0.000001 -0.000000 -0.000000 -4.302206 -11.463462 16.659033 10.186647 -2.790150 26.552769 -0.000001 0.000001 0.000000 -29.347660 16.099447 2.070576 13.989716 -33.541744 -2.492237 16.249218 -23.998353 -9.595371 -1.779687 -0.001305 -0.001010 -0.000000 -0.000000 -0.000000 -1.743983 -19.665484 -25.682095 51.606351 -26.890967 -2.406609 -8.438852 -2.555986 23.439611 -23.068026 -6.978405 17.418067 -0.000000 -0.000000 -0.000000 
